<?xml version="1.0" encoding="UTF-8" standalone="no"?>
<!-- Created with Inkscape (http://www.inkscape.org/) -->

<svg
   xmlns:dc="http://purl.org/dc/elements/1.1/"
   xmlns:cc="http://creativecommons.org/ns#"
   xmlns:rdf="http://www.w3.org/1999/02/22-rdf-syntax-ns#"
   xmlns:svg="http://www.w3.org/2000/svg"
   xmlns="http://www.w3.org/2000/svg"
   xmlns:sodipodi="http://sodipodi.sourceforge.net/DTD/sodipodi-0.dtd"
   xmlns:inkscape="http://www.inkscape.org/namespaces/inkscape"
   id="svg2"
   version="1.1"
   inkscape:version="0.92.1 r15371"
   xml:space="preserve"
   width="500.20807"
   height="98.396004"
   viewBox="0 0 468.94507 92.246254"
   sodipodi:docname="logo-white.svg"
   inkscape:export-filename="/home/jay/Documents/Outspoke/glidepath/assets/img/logo-white.png"
   inkscape:export-xdpi="96"
   inkscape:export-ydpi="96"><metadata
     id="metadata8"><rdf:RDF><cc:Work
         rdf:about=""><dc:format>image/svg+xml</dc:format><dc:type
           rdf:resource="http://purl.org/dc/dcmitype/StillImage" /><dc:title /></cc:Work></rdf:RDF></metadata><defs
     id="defs6"><clipPath
       clipPathUnits="userSpaceOnUse"
       id="clipPath16"><path
         d="m 174.22,400.574 c 0,-11.754 7.579,-20.208 18.084,-20.208 v 0 c 5.186,0 8.644,1.718 12.102,5.91 v 0 c -0.333,-8.179 -3.724,-12.165 -10.308,-12.165 v 0 c -4.12,0 -6.647,1.099 -9.24,4.055 v 0 h -10.04 c 2.992,-7.63 9.906,-12.099 18.95,-12.099 v 0 c 11.436,0 19.08,6.05 19.08,22.409 v 0 30.865 h -8.442 v -4.813 c -2.727,3.849 -6.716,5.706 -12.036,5.706 v 0 c -10.437,0 -18.15,-8.386 -18.15,-19.66 m 8.91,-0.412 c 0,7.011 4.055,11.686 10.239,11.686 v 0 c 6.316,0 10.638,-4.743 10.638,-11.686 v 0 c 0,-6.875 -4.19,-11.411 -10.506,-11.411 v 0 c -6.316,0 -10.371,4.468 -10.371,11.411"
         id="path18"
         inkscape:connector-curvature="0" /></clipPath><clipPath
       clipPathUnits="userSpaceOnUse"
       id="clipPath30"><path
         d="m 280.922,432.055 v -16.084 c -2.593,2.956 -6.848,4.744 -11.502,4.744 v 0 c -10.305,0 -18.416,-8.937 -18.416,-20.347 v 0 c 0,-11.273 8.045,-20.003 18.483,-20.003 v 0 c 4.987,0 8.643,1.719 12.168,5.843 v 0 -4.949 h 8.111 v 50.796 z M 259.914,400.78 c 0,6.462 4.719,11.549 10.77,11.549 v 0 c 6.183,0 10.904,-5.156 10.904,-11.823 v 0 c 0,-6.599 -4.721,-11.755 -10.705,-11.755 v 0 c -6.183,0 -10.969,5.292 -10.969,12.029"
         id="path32"
         inkscape:connector-curvature="0" /></clipPath><clipPath
       clipPathUnits="userSpaceOnUse"
       id="clipPath40"><path
         d="m 294.881,400.162 c 0,-11.135 8.709,-19.796 19.947,-19.796 v 0 c 7.445,0 15.091,4.33 17.551,12.166 v 0 h -9.64 c -2.261,-2.75 -4.455,-3.781 -8.112,-3.781 v 0 c -5.252,0 -9.109,2.888 -10.173,7.493 v 0 h 28.523 c 0.267,1.306 0.333,2.131 0.333,3.505 v 0 c 0,11.823 -8.045,20.485 -19.016,20.485 v 0 c -10.837,0 -19.413,-8.868 -19.413,-20.072 m 19.547,11.686 c 5.452,0 9.043,-2.682 10.172,-7.563 v 0 h -20.41 c 1.395,4.881 4.985,7.563 10.238,7.563"
         id="path42"
         inkscape:connector-curvature="0" /></clipPath><clipPath
       clipPathUnits="userSpaceOnUse"
       id="clipPath50"><path
         d="m 346.518,412.396 v 6.461 h -4.919 V 368.06 h 4.919 v 19.659 c 3.191,-4.811 8.111,-7.355 14.162,-7.355 v 0 c 10.837,0 19.281,8.593 19.281,19.591 v 0 c 0,11.204 -8.311,19.796 -19.147,19.796 v 0 c -6.185,0 -11.239,-2.612 -14.296,-7.355 m -0.333,-12.167 c 0,8.318 6.383,14.847 14.428,14.847 v 0 c 8.178,0 14.361,-6.461 14.361,-15.121 v 0 c 0,-8.455 -6.183,-14.916 -14.294,-14.916 v 0 c -8.311,0 -14.495,6.529 -14.495,15.19"
         id="path52"
         inkscape:connector-curvature="0" /></clipPath><clipPath
       clipPathUnits="userSpaceOnUse"
       id="clipPath60"><path
         d="m 384.877,399.955 c 0,-11.205 8.31,-19.591 19.48,-19.591 v 0 c 6.182,0 10.171,2.131 14.029,7.492 v 0 -6.598 h 4.919 v 37.599 h -4.919 v -6.666 c -3.591,5.223 -8.045,7.56 -14.362,7.56 v 0 c -10.904,0 -19.147,-8.524 -19.147,-19.796 m 4.987,0.344 c 0,8.179 6.382,14.777 14.294,14.777 v 0 c 7.978,0 14.228,-6.461 14.228,-14.847 v 0 c 0,-8.523 -6.118,-15.19 -13.962,-15.19 v 0 c -8.246,0 -14.56,6.667 -14.56,15.26"
         id="path62"
         inkscape:connector-curvature="0" /></clipPath><clipPath
       clipPathUnits="userSpaceOnUse"
       id="clipPath74"><path
         d="m 452.886,432.055 v -50.797 h 4.921 v 20.621 c 0,9.21 4.787,13.197 11.103,13.197 v 0 c 6.648,0 11.236,-4.262 11.236,-13.609 v 0 -20.209 h 4.919 v 20.209 c 0,12.579 -6.249,18.284 -15.69,18.284 v 0 c -4.987,0 -9.109,-2.062 -11.568,-5.773 v 0 18.077 z"
         id="path76"
         inkscape:connector-curvature="0" /></clipPath><clipPath
       clipPathUnits="userSpaceOnUse"
       id="clipPath84"><path
         d="m 116.254,437.969 6.169,-10.795 c 0.926,-1.621 2.812,-2.364 4.546,-1.794 v 0 l 27.229,11.311 c 0.202,0.084 0.336,-0.22 0.141,-0.322 v 0 l -26.178,-13.74 c -1.567,-0.957 -2.286,-2.908 -1.733,-4.701 v 0 l 3.589,-11.647 c 0.325,-1.061 1.643,-1.349 2.359,-0.519 v 0 l 27.674,32.155 c 0.629,0.731 0.127,1.89 -0.819,1.89 v 0 l -41.93,0.057 c -0.942,0.002 -1.527,-1.057 -1.047,-1.895"
         id="path86"
         inkscape:connector-curvature="0" /></clipPath><clipPath
       clipPathUnits="userSpaceOnUse"
       id="clipPath94"><path
         d="m 116.046,423.144 c -1.672,-2.048 -3.029,-4.331 -4.05,-6.816 v 0 c -5.652,-13.753 0.573,-29.695 13.876,-35.538 v 0 c 3.259,-1.432 6.694,-2.157 10.212,-2.157 v 0 c 10.558,0 20.043,6.478 24.162,16.504 v 0 c 0.59,1.434 1.065,2.957 1.413,4.526 v 0 l 0.033,0.132 c 0.015,0.063 0.033,0.126 0.046,0.19 v 0 c 0.01,0.048 0.018,0.096 0.026,0.147 v 0 l 0.019,0.111 c 0.134,0.673 0.239,1.326 0.32,1.965 v 0 l 0.02,0.14 c 0.009,0.06 0.019,0.12 0.026,0.181 v 0 c 0.017,0.145 0.027,0.294 0.037,0.442 v 0 c 0.064,0.675 0.104,1.257 0.12,1.811 v 0 l 0.008,0.147 c 0.004,0.066 0.007,0.132 0.009,0.199 v 0 c 0.002,0.119 -0.002,0.237 -0.004,0.354 v 0 l -0.004,0.143 c 0,0.342 -0.007,0.656 -0.018,0.97 v 0 c -0.007,0.368 -0.018,0.777 -0.047,1.171 v 0 c -0.018,0.243 -0.047,0.483 -0.075,0.722 v 0 l -0.019,0.163 c -0.014,0.128 -0.03,0.246 -0.045,0.365 v 0 l -0.022,0.164 -0.008,0.07 c -0.049,0.403 -0.094,0.784 -0.158,1.162 v 0 c -0.016,0.092 -0.027,0.182 -0.036,0.274 v 0 c -0.007,0.05 -0.011,0.099 -0.02,0.15 v 0 c -0.017,0.09 -0.042,0.18 -0.065,0.268 v 0 c -0.031,0.117 -0.06,0.234 -0.086,0.353 v 0 c -0.117,0.559 -0.247,1.099 -0.384,1.603 v 0 c -0.099,0.364 -0.204,0.726 -0.318,1.087 v 0 c -0.233,0.734 -0.52,1.497 -0.902,2.402 v 0 c -0.002,0.003 -0.005,0.009 -0.007,0.015 v 0 c -0.004,0.01 -0.009,0.019 -0.013,0.029 v 0 c -0.67,1.425 -1.363,2.706 -1.518,3.005 v 0 c -0.264,0.506 -1.33,0.66 -1.748,0.281 v 0 l -18.348,-19.208 c -0.571,-0.517 -0.083,-1.477 0.652,-1.284 v 0 l 14.761,5.86 c 0.094,0.025 0.188,0.037 0.283,0.037 v 0 c 0.267,0 0.53,-0.098 0.738,-0.28 v 0 c 0.282,-0.248 0.431,-0.621 0.4,-1.002 v 0 c -0.024,-0.303 -0.051,-0.608 -0.09,-0.911 v 0 c 0,-0.002 -0.01,-0.08 -0.01,-0.082 v 0 c -0.023,-0.169 -0.049,-0.333 -0.077,-0.497 v 0 l -0.021,-0.127 c -0.046,-0.28 -0.095,-0.56 -0.154,-0.84 v 0 l -0.017,-0.092 c -0.014,-0.075 -0.029,-0.149 -0.046,-0.224 v 0 c -0.045,-0.198 -0.097,-0.394 -0.15,-0.59 v 0 l -0.025,-0.092 -0.011,-0.044 c -0.048,-0.185 -0.096,-0.369 -0.15,-0.553 v 0 l -0.014,-0.05 c -0.033,-0.126 -0.067,-0.251 -0.106,-0.376 v 0 c -0.104,-0.325 -0.222,-0.638 -0.337,-0.939 v 0 l -0.028,-0.075 c -0.023,-0.06 -0.045,-0.124 -0.066,-0.187 v 0 c -0.045,-0.129 -0.09,-0.257 -0.142,-0.384 v 0 c -3.032,-7.376 -10.007,-12.141 -17.772,-12.141 v 0 c -2.588,0 -5.116,0.533 -7.514,1.587 v 0 c -4.733,2.078 -8.403,5.946 -10.333,10.888 v 0 c -1.93,4.944 -1.885,10.36 0.125,15.254 v 0 c 0.29,0.704 0.624,1.394 1.011,2.086 v 0 c 0.206,0.368 0.255,0.81 0.113,1.211 v 0 l -2.142,6.088 c -0.117,0.336 -0.415,0.518 -0.718,0.518 v 0 c -0.215,0 -0.433,-0.092 -0.592,-0.286"
         id="path96"
         inkscape:connector-curvature="0" /></clipPath><clipPath
       clipPathUnits="userSpaceOnUse"
       id="clipPath104"><path
         d="m 486.983,443.933 c -0.931,0 -1.683,-0.778 -1.683,-1.74 v 0 -17.692 c 0,-0.85 0.667,-1.54 1.489,-1.54 v 0 h 49.943 c 1.101,0 1.9,1.083 1.609,2.182 v 0 l -2.2,8.304 2.2,8.303 c 0.291,1.099 -0.509,2.183 -1.611,2.183 v 0 z"
         id="path106"
         inkscape:connector-curvature="0" /></clipPath><clipPath
       clipPathUnits="userSpaceOnUse"
       id="clipPath114"><path
         d="m 491.814,439.148 v -11.673 h 3.01 c 2.903,0 4.324,1.342 4.324,3.475 v 0 c 0,1.389 -0.489,2.274 -1.925,2.89 v 0 c 0.902,0.49 1.253,1.106 1.253,2.196 v 0 c 0,1.09 -0.475,2.007 -1.284,2.544 v 0 c -0.672,0.442 -1.375,0.568 -3.056,0.568 v 0 z m 2.093,-2.116 h 0.855 c 1.085,0 1.62,-0.38 1.62,-1.185 v 0 c 0,-0.838 -0.535,-1.2 -1.803,-1.2 v 0 h -0.672 z m 0,-4.503 h 0.993 c 1.452,0 2.14,-0.489 2.14,-1.532 v 0 c 0,-1.011 -0.627,-1.454 -2.093,-1.454 v 0 h -1.04 z"
         id="path116"
         inkscape:connector-curvature="0" /></clipPath></defs><sodipodi:namedview
     pagecolor="#ffffff"
     bordercolor="#666666"
     borderopacity="1"
     objecttolerance="10"
     gridtolerance="10"
     guidetolerance="10"
     inkscape:pageopacity="0"
     inkscape:pageshadow="2"
     inkscape:window-width="1920"
     inkscape:window-height="1031"
     id="namedview4"
     showgrid="false"
     fit-margin-top="0"
     fit-margin-left="0"
     fit-margin-right="0"
     fit-margin-bottom="0"
     inkscape:zoom="1.3185359"
     inkscape:cx="181.01397"
     inkscape:cy="-0.3744407"
     inkscape:window-x="0"
     inkscape:window-y="0"
     inkscape:window-maximized="1"
     inkscape:current-layer="g10" /><g
     id="g10"
     inkscape:groupmode="layer"
     inkscape:label="Logo"
     transform="matrix(1.25,0,0,-1.25,-137.38618,549.83)"><g
       id="g12"
       style="fill:#ffffff;fill-opacity:1"><g
         id="g14"
         clip-path="url(#clipPath16)"
         style="fill:#ffffff;fill-opacity:1"><path
           d="m 169.221,425.234 h 48.628 v -64.167 h -48.628 z"
           style="fill:#ffffff;fill-opacity:1;fill-rule:nonzero;stroke:none"
           id="path20"
           inkscape:connector-curvature="0" /></g></g><path
       d="m 220.689,381.259 h 8.843 v 50.796 h -8.843 z"
       style="fill:#ffffff;fill-opacity:1;fill-rule:nonzero;stroke:none"
       id="path22"
       inkscape:connector-curvature="0" /><path
       d="m 236.712,424.839 h 8.842 v 9.142 h -8.842 z m -0.068,-43.58 h 8.842 v 38.082 h -8.842 z"
       style="fill:#ffffff;fill-opacity:1;fill-rule:nonzero;stroke:none"
       id="path24"
       inkscape:connector-curvature="0" /><g
       id="g26"
       style="fill:#ffffff;fill-opacity:1"><g
         id="g28"
         clip-path="url(#clipPath30)"
         style="fill:#ffffff;fill-opacity:1"><path
           d="m 246.004,437.055 h 48.762 v -61.69 h -48.762 z"
           style="fill:#ffffff;fill-opacity:1;fill-rule:nonzero;stroke:none"
           id="path34"
           inkscape:connector-curvature="0" /></g></g><g
       id="g36"
       style="fill:#ffffff;fill-opacity:1"><g
         id="g38"
         clip-path="url(#clipPath40)"
         style="fill:#ffffff;fill-opacity:1"><path
           d="M 289.881,425.234 H 338.31 V 375.366 H 289.881 Z"
           style="fill:#ffffff;fill-opacity:1;fill-rule:nonzero;stroke:none"
           id="path44"
           inkscape:connector-curvature="0" /></g></g><g
       id="g46"
       style="fill:#ffffff;fill-opacity:1"><g
         id="g48"
         clip-path="url(#clipPath50)"
         style="fill:#ffffff;fill-opacity:1"><path
           d="m 336.598,424.751 h 48.363 V 363.06 h -48.363 z"
           style="fill:#ffffff;fill-opacity:1;fill-rule:nonzero;stroke:none"
           id="path54"
           inkscape:connector-curvature="0" /></g></g><g
       id="g56"
       style="fill:#ffffff;fill-opacity:1"><g
         id="g58"
         clip-path="url(#clipPath60)"
         style="fill:#ffffff;fill-opacity:1"><path
           d="m 379.877,424.751 h 48.429 v -49.387 h -48.429 z"
           style="fill:#ffffff;fill-opacity:1;fill-rule:nonzero;stroke:none"
           id="path64"
           inkscape:connector-curvature="0" /></g></g><g
       id="g66"
       transform="translate(435.4686,432.0549)"
       style="fill:#ffffff;fill-opacity:1"><path
         d="m 0,0 v -13.198 h -7.844 v -4.605 H 0 v -32.994 h 4.921 v 32.994 h 8.178 v 4.605 H 4.921 L 4.921,0 Z"
         style="fill:#ffffff;fill-opacity:1;fill-rule:nonzero;stroke:none"
         id="path68"
         inkscape:connector-curvature="0" /></g><g
       id="g70"
       style="fill:#ffffff;fill-opacity:1"><g
         id="g72"
         clip-path="url(#clipPath74)"
         style="fill:#ffffff;fill-opacity:1"><path
           d="m 447.886,437.055 h 42.179 v -60.798 h -42.179 z"
           style="fill:#ffffff;fill-opacity:1;fill-rule:nonzero;stroke:none"
           id="path78"
           inkscape:connector-curvature="0" /></g></g><g
       id="g80"
       style="fill:#ffffff;fill-opacity:1"><g
         id="g82"
         clip-path="url(#clipPath84)"
         style="fill:#ffffff;fill-opacity:1"><path
           d="m 111.082,444.864 h 54.247 V 400.28 h -54.247 z"
           style="fill:#ffffff;fill-opacity:1;fill-rule:nonzero;stroke:none"
           id="path88"
           inkscape:connector-curvature="0" /></g></g><g
       id="g90"
       style="fill:#ffffff;fill-opacity:1"><g
         id="g92"
         clip-path="url(#clipPath94)"
         style="fill:#ffffff;fill-opacity:1"><path
           d="m 104.909,428.431 h 62.415 v -54.798 h -62.415 z"
           style="fill:#ffffff;fill-opacity:1;fill-rule:nonzero;stroke:none"
           id="path98"
           inkscape:connector-curvature="0" /></g></g></g></svg>